<?xml version="1.0" standalone="no"?>
<!DOCTYPE svg PUBLIC "-//W3C//DTD SVG 20010904//EN"
 "http://www.w3.org/TR/2001/REC-SVG-20010904/DTD/svg10.dtd">
<svg version="1.0" xmlns="http://www.w3.org/2000/svg"
 width="512.000000pt" height="512.000000pt" viewBox="0 0 512.000000 512.000000"
 preserveAspectRatio="xMidYMid meet">

<g transform="translate(0.000000,512.000000) scale(0.100000,-0.100000)"
fill="#000000" stroke="none">
<path d="M213 5101 c-63 -21 -115 -60 -154 -114 -55 -77 -59 -106 -59 -494 l0
-354 25 -24 c31 -32 74 -33 103 -2 22 23 22 28 22 374 0 346 0 350 23 393 16
30 37 51 67 67 43 23 44 23 465 23 l422 0 5 -88 c4 -61 11 -100 26 -128 66
-129 234 -165 345 -73 57 47 79 99 85 201 l5 88 67 0 67 0 5 -88 c4 -61 11
-100 26 -128 66 -129 234 -165 345 -73 57 47 79 99 85 201 l5 88 67 0 67 0 5
-88 c4 -61 11 -100 26 -128 66 -129 234 -165 345 -73 57 47 79 99 85 201 l5
88 67 0 67 0 5 -88 c4 -61 11 -100 26 -128 66 -129 234 -165 345 -73 57 47 79
99 85 201 l5 88 67 0 67 0 5 -88 c4 -61 11 -100 26 -128 66 -129 234 -165 345
-73 57 47 79 99 85 201 l5 88 94 0 c52 0 103 5 114 11 43 22 43 93 1 125 -14
11 -384 13 -1977 13 -1856 0 -1963 -1 -2012 -18z m1217 -205 c0 -69 -2 -76
-26 -95 -15 -12 -34 -21 -44 -21 -10 0 -29 9 -44 21 -24 19 -26 26 -26 95 l0
74 70 0 70 0 0 -74z m600 0 c0 -69 -2 -76 -26 -95 -15 -12 -34 -21 -44 -21
-10 0 -29 9 -44 21 -24 19 -26 26 -26 95 l0 74 70 0 70 0 0 -74z m600 0 c0
-69 -2 -76 -26 -95 -15 -12 -34 -21 -44 -21 -10 0 -29 9 -44 21 -24 19 -26 26
-26 95 l0 74 70 0 70 0 0 -74z m600 0 c0 -69 -2 -76 -26 -95 -15 -12 -34 -21
-44 -21 -10 0 -29 9 -44 21 -24 19 -26 26 -26 95 l0 74 70 0 70 0 0 -74z m600
0 c0 -69 -2 -76 -26 -95 -15 -12 -34 -21 -44 -21 -10 0 -29 9 -44 21 -24 19
-26 26 -26 95 l0 74 70 0 70 0 0 -74z"/>
<path d="M4425 5096 c-32 -32 -32 -70 0 -101 24 -25 26 -25 202 -25 98 0 196
-5 218 -11 50 -14 100 -64 114 -114 15 -56 15 -4514 0 -4570 -14 -50 -64 -100
-114 -114 -26 -7 -182 -11 -446 -11 l-406 0 -5 88 c-7 127 -51 199 -145 239
-41 17 -125 17 -166 0 -94 -40 -138 -112 -145 -239 l-5 -88 -67 0 -67 0 -5 88
c-7 127 -51 199 -145 239 -41 17 -125 17 -166 0 -94 -40 -138 -112 -145 -239
l-5 -88 -67 0 -67 0 -5 88 c-7 127 -51 199 -145 239 -41 17 -125 17 -166 0
-94 -40 -138 -112 -145 -239 l-5 -88 -67 0 -67 0 -5 88 c-7 127 -51 199 -145
239 -41 17 -125 17 -166 0 -94 -40 -138 -112 -145 -239 l-5 -88 -67 0 -67 0
-5 88 c-7 127 -51 199 -145 239 -41 17 -125 17 -166 0 -94 -40 -138 -112 -145
-240 l-5 -88 -431 3 c-429 3 -431 3 -468 26 -21 13 -45 40 -57 66 l-21 42 0
1790 0 1791 -23 21 c-31 29 -72 28 -103 -3 l-24 -24 2 -1813 3 -1813 28 -57
c32 -65 89 -121 156 -152 l46 -21 2325 0 2325 0 57 28 c65 32 121 89 152 156
l21 46 0 2325 0 2325 -28 57 c-32 65 -89 121 -156 152 -42 19 -66 21 -263 24
l-218 3 -25 -25z m-3021 -4777 c24 -19 26 -26 26 -95 l0 -74 -70 0 -70 0 0 74
c0 69 2 76 26 95 15 12 34 21 44 21 10 0 29 -9 44 -21z m600 0 c24 -19 26 -26
26 -95 l0 -74 -70 0 -70 0 0 74 c0 69 2 76 26 95 15 12 34 21 44 21 10 0 29
-9 44 -21z m600 0 c24 -19 26 -26 26 -95 l0 -74 -70 0 -70 0 0 74 c0 69 2 76
26 95 15 12 34 21 44 21 10 0 29 -9 44 -21z m600 0 c24 -19 26 -26 26 -95 l0
-74 -70 0 -70 0 0 74 c0 69 2 76 26 95 15 12 34 21 44 21 10 0 29 -9 44 -21z
m600 0 c24 -19 26 -26 26 -95 l0 -74 -70 0 -70 0 0 74 c0 69 2 76 26 95 15 12
34 21 44 21 10 0 29 -9 44 -21z"/>
<path d="M543 4756 c-121 -39 -194 -138 -192 -260 3 -197 205 -319 383 -232
91 45 144 131 144 236 0 66 -12 104 -54 163 -57 80 -188 123 -281 93z m149
-175 c29 -26 33 -35 33 -81 0 -46 -4 -55 -33 -81 -25 -23 -42 -29 -77 -29 -35
0 -52 6 -77 29 -29 26 -33 35 -33 81 0 46 4 55 33 81 25 23 42 29 77 29 35 0
52 -6 77 -29z"/>
<path d="M4433 4756 c-121 -39 -194 -138 -192 -260 2 -146 118 -261 265 -261
89 0 166 42 219 119 39 57 40 60 40 146 0 86 -1 89 -40 146 -66 96 -191 143
-292 110z m149 -175 c29 -26 33 -35 33 -81 0 -46 -4 -55 -33 -81 -25 -23 -42
-29 -77 -29 -35 0 -52 6 -77 29 -29 26 -33 35 -33 81 0 46 4 55 33 81 25 23
42 29 77 29 35 0 52 -6 77 -29z"/>
<path d="M1550 4132 c-18 -14 -24 -32 -28 -75 l-4 -57 -88 0 c-125 0 -134 -8
-138 -134 l-4 -96 -48 0 c-64 0 -94 -24 -94 -75 0 -51 30 -75 95 -75 l49 0 0
-105 0 -105 -49 0 c-65 0 -95 -24 -95 -75 0 -51 30 -75 94 -75 l48 0 4 -96 c4
-126 13 -134 138 -134 l88 0 4 -57 c6 -64 30 -93 78 -93 48 0 72 29 78 93 l4
57 98 0 98 0 4 -57 c6 -64 30 -93 78 -93 48 0 72 29 78 93 l4 57 88 0 c125 0
134 8 138 134 l4 96 48 0 c64 0 94 24 94 75 0 51 -30 75 -95 75 l-49 0 0 105
0 105 49 0 c65 0 95 24 95 75 0 51 -30 75 -94 75 l-48 0 -4 96 c-4 126 -13
134 -138 134 l-88 0 -4 57 c-6 64 -30 93 -78 93 -48 0 -72 -29 -78 -93 l-4
-57 -98 0 -98 0 -4 57 c-6 64 -30 93 -78 93 -15 0 -38 -8 -50 -18z m560 -617
l0 -335 -330 0 -330 0 0 335 0 335 330 0 330 0 0 -335z"/>
<path d="M3208 4026 c-26 -7 -65 -25 -87 -41 -41 -28 -101 -107 -101 -132 0
-10 -20 -13 -81 -13 -76 0 -82 -2 -110 -29 -37 -37 -37 -65 0 -102 28 -27 35
-29 108 -29 l79 0 12 -34 c17 -47 84 -113 140 -139 45 -21 61 -22 352 -22 291
0 307 1 352 22 56 26 123 92 140 139 l12 34 79 0 c73 0 80 2 108 29 37 37 37
65 0 102 -28 27 -35 29 -108 29 l-79 0 -12 34 c-17 47 -84 113 -140 139 -44
21 -64 22 -332 24 -209 2 -298 -1 -332 -11z m612 -161 c16 -9 36 -29 45 -45
31 -60 10 -137 -45 -165 -24 -12 -78 -15 -311 -15 l-281 0 -34 34 c-30 30 -34
40 -34 86 0 46 4 56 34 86 l34 34 281 0 c233 0 287 -3 311 -15z"/>
<path d="M3208 3426 c-26 -7 -65 -25 -87 -41 -41 -28 -101 -107 -101 -132 0
-10 -20 -13 -81 -13 -76 0 -82 -2 -110 -29 -37 -37 -37 -65 0 -102 28 -27 35
-29 108 -29 l79 0 12 -34 c17 -47 84 -113 140 -139 45 -21 61 -22 352 -22 291
0 307 1 352 22 56 26 123 92 140 139 l12 34 79 0 c73 0 80 2 108 29 37 37 37
65 0 102 -28 27 -35 29 -108 29 l-79 0 -12 34 c-17 47 -84 113 -140 139 -44
21 -64 22 -332 24 -209 2 -298 -1 -332 -11z m612 -161 c16 -9 36 -29 45 -45
31 -60 10 -137 -45 -165 -24 -12 -78 -15 -311 -15 l-281 0 -34 34 c-30 30 -34
40 -34 86 0 46 4 56 34 86 l34 34 281 0 c233 0 287 -3 311 -15z"/>
<path d="M3208 2826 c-26 -7 -65 -25 -87 -41 -41 -28 -101 -107 -101 -132 0
-10 -20 -13 -81 -13 -76 0 -82 -2 -110 -29 -37 -37 -37 -65 0 -102 28 -27 35
-29 108 -29 l79 0 12 -34 c17 -47 84 -113 140 -139 45 -21 61 -22 352 -22 291
0 307 1 352 22 56 26 123 92 140 139 l12 34 79 0 c73 0 80 2 108 29 37 37 37
65 0 102 -28 27 -35 29 -108 29 l-79 0 -12 34 c-17 47 -84 113 -140 139 -44
21 -64 22 -332 24 -209 2 -298 -1 -332 -11z m612 -161 c16 -9 36 -29 45 -45
31 -60 10 -137 -45 -165 -24 -12 -78 -15 -311 -15 l-281 0 -34 34 c-30 30 -34
40 -34 86 0 46 4 56 34 86 l34 34 281 0 c233 0 287 -3 311 -15z"/>
<path d="M1319 2671 c-25 -25 -29 -37 -29 -84 l0 -54 -52 -5 c-40 -4 -57 -11
-75 -32 -31 -36 -29 -62 6 -97 24 -24 38 -29 75 -29 l46 0 0 -99 0 -98 -52 -5
c-40 -4 -57 -11 -75 -32 -31 -36 -29 -62 6 -97 24 -24 38 -29 75 -29 l46 0 0
-95 0 -95 -46 0 c-37 0 -51 -5 -75 -29 -37 -37 -37 -65 0 -102 24 -24 38 -29
75 -29 l46 0 0 -100 0 -100 -46 0 c-37 0 -51 -5 -75 -29 -37 -37 -37 -65 0
-102 24 -24 38 -29 75 -29 l46 0 0 -51 c0 -43 5 -55 29 -80 l29 -29 212 0
c230 0 264 7 276 55 6 24 9 25 89 25 80 0 83 -1 89 -25 9 -36 54 -55 131 -55
60 0 69 3 96 29 24 25 29 37 29 80 l0 51 46 0 c37 0 51 5 75 29 37 37 37 65 0
102 -24 24 -38 29 -75 29 l-46 0 0 100 0 100 46 0 c37 0 51 5 75 29 37 37 37
65 0 102 -24 24 -38 29 -75 29 l-46 0 0 95 0 95 46 0 c37 0 51 5 75 29 35 35
37 61 6 97 -18 21 -35 28 -75 32 l-52 5 0 98 0 99 46 0 c37 0 51 5 75 29 35
35 37 61 6 97 -18 21 -35 28 -75 32 l-52 5 0 54 c0 47 -4 59 -29 84 l-29 29
-432 0 -432 0 -29 -29z"/>
<path d="M3208 2226 c-26 -7 -65 -25 -87 -41 -41 -28 -101 -107 -101 -132 0
-10 -20 -13 -81 -13 -76 0 -82 -2 -110 -29 -37 -37 -37 -65 0 -102 28 -27 35
-29 108 -29 l79 0 12 -34 c17 -47 84 -113 140 -139 45 -21 61 -22 352 -22 291
0 307 1 352 22 56 26 123 92 140 139 l12 34 79 0 c73 0 80 2 108 29 37 37 37
65 0 102 -28 27 -35 29 -108 29 l-79 0 -12 34 c-17 47 -84 113 -140 139 -44
21 -64 22 -332 24 -209 2 -298 -1 -332 -11z m612 -161 c16 -9 36 -29 45 -45
31 -60 10 -137 -45 -165 -24 -12 -78 -15 -311 -15 l-281 0 -34 34 c-30 30 -34
40 -34 86 0 46 4 56 34 86 l34 34 281 0 c233 0 287 -3 311 -15z"/>
<path d="M3208 1626 c-26 -7 -65 -25 -87 -41 -41 -28 -101 -107 -101 -132 0
-10 -20 -13 -81 -13 -76 0 -82 -2 -110 -29 -37 -37 -37 -65 0 -102 28 -27 35
-29 108 -29 l79 0 12 -34 c17 -47 84 -113 140 -139 45 -21 61 -22 352 -22 291
0 307 1 352 22 56 26 123 92 140 139 l12 34 79 0 c73 0 80 2 108 29 37 37 37
65 0 102 -28 27 -35 29 -108 29 l-79 0 -12 34 c-17 47 -84 113 -140 139 -44
21 -64 22 -332 24 -209 2 -298 -1 -332 -11z m612 -161 c16 -9 36 -29 45 -45
31 -60 10 -137 -45 -165 -24 -12 -78 -15 -311 -15 l-281 0 -34 34 c-30 30 -34
40 -34 86 0 46 4 56 34 86 l34 34 281 0 c233 0 287 -3 311 -15z"/>
<path d="M543 876 c-121 -39 -194 -138 -192 -260 3 -197 205 -319 383 -232 91
45 144 131 144 236 0 66 -12 104 -54 163 -57 80 -188 123 -281 93z m149 -175
c29 -26 33 -35 33 -81 0 -46 -4 -55 -33 -81 -25 -23 -42 -29 -77 -29 -35 0
-52 6 -77 29 -29 26 -33 35 -33 81 0 46 4 55 33 81 25 23 42 29 77 29 35 0 52
-6 77 -29z"/>
<path d="M4433 876 c-121 -39 -194 -138 -192 -260 2 -146 118 -261 265 -261
89 0 166 42 219 119 39 57 40 60 40 146 0 86 -1 89 -40 146 -66 96 -191 143
-292 110z m149 -175 c29 -26 33 -35 33 -81 0 -46 -4 -55 -33 -81 -25 -23 -42
-29 -77 -29 -35 0 -52 6 -77 29 -29 26 -33 35 -33 81 0 46 4 55 33 81 25 23
42 29 77 29 35 0 52 -6 77 -29z"/>
</g>
</svg>
